<?xml version="1.0" encoding="UTF-8" standalone="no" ?>
<!DOCTYPE svg PUBLIC "-//W3C//DTD SVG 1.1//EN" "http://www.w3.org/Graphics/SVG/1.1/DTD/svg11.dtd">
<svg xmlns="http://www.w3.org/2000/svg" xmlns:xlink="http://www.w3.org/1999/xlink" version="1.1" width="1080" height="1080" viewBox="0 0 1080 1080" xml:space="preserve">
<desc>Created with Fabric.js 5.2.4</desc>
<defs>
</defs>
<rect x="0" y="0" width="100%" height="100%" fill="transparent"></rect>
<g transform="matrix(1 0 0 1 540 540)" id="783358d9-6944-453d-9b94-10cdcbb2b869"  >
<rect style="stroke: none; stroke-width: 1; stroke-dasharray: none; stroke-linecap: butt; stroke-dashoffset: 0; stroke-linejoin: miter; stroke-miterlimit: 4; fill: rgb(255,255,255); fill-rule: nonzero; opacity: 1; visibility: hidden;" vector-effect="non-scaling-stroke"  x="-540" y="-540" rx="0" ry="0" width="1080" height="1080" />
</g>
<g transform="matrix(1 0 0 1 540 540)" id="d22e59d8-48b1-4659-b946-0d804f294894"  >
</g>
<g transform="matrix(1 0 0 1 540 540)"  >
<g style="opacity: 1;" vector-effect="non-scaling-stroke"   >
		<g transform="matrix(8 0 0 8 2.93 -2.52)"  >
<path style="stroke: none; stroke-width: 1; stroke-dasharray: none; stroke-linecap: butt; stroke-dashoffset: 0; stroke-linejoin: miter; stroke-miterlimit: 4; fill: rgb(51,51,51); fill-rule: nonzero; opacity: 1;" vector-effect="non-scaling-stroke"  transform=" translate(-50.12, -50)" d="M 78.984 41.838 C 78.34768814576803 39.58014183779342 77.44677371788629 37.405393485242804 76.3 35.35899999999999 L 83.402 27.817 C 80.46679468221124 23.42277578989998 76.6942242101 19.650205317788746 72.29999999999998 16.71499999999999 L 64.758 23.817 C 62.711406647075464 22.67063823645502 60.53670815891834 21.76974446546972 58.27899999999998 21.132999999999996 L 57.967 10.774999999999999 C 52.7845199131197 9.74324035789168 47.44948008688027 9.743240357891676 42.26699999999998 10.774999999999999 L 41.955 21.133 C 39.69714183779342 21.76931185423196 37.522393485242794 22.67022628211371 35.47599999999998 23.817000000000007 L 27.933999999999997 16.715 C 23.539775789899974 19.650205317788757 19.76720531778876 23.422775789899973 16.832 27.816999999999997 L 23.933999999999997 35.359 C 22.78763823645501 37.40559335292454 21.886744465469718 39.58029184108166 21.24999999999999 41.83800000000002 L 10.891999999999996 42.15 C 9.860240357891676 47.332480086880295 9.860240357891682 52.667519913119705 10.892000000000003 57.849999999999994 L 21.249999999999996 58.16199999999999 C 21.886311854231955 60.419858162206566 22.787226282113693 62.59460651475717 23.933999999999983 64.64099999999998 L 16.831999999999997 72.18299999999999 C 19.767205317788754 76.57722421010001 23.539775789899974 80.34979468221124 27.933999999999997 83.285 L 35.476 76.18299999999999 C 37.52259335292453 77.32936176354498 39.697291841081636 78.23025553453026 41.955 78.86699999999999 L 42.266999999999996 89.225 C 47.44948008688029 90.25675964210832 52.78451991311969 90.25675964210832 57.966999999999985 89.225 L 58.278999999999996 78.86699999999999 C 60.53685816220658 78.23068814576803 62.711606514757186 77.32977371788628 64.75800000000001 76.18299999999999 L 72.3 83.285 C 76.69422421010002 80.34979468221124 80.46679468221124 76.57722421010001 83.402 72.18299999999999 L 76.3 64.641 C 77.44636176354499 62.59440664707547 78.34725553453026 60.41970815891837 78.984 58.16200000000001 L 89.342 57.85000000000001 C 90.37375964210833 52.66751991311971 90.37375964210833 47.33248008688031 89.342 42.15000000000002 L 78.984 41.83800000000001 z M 50 70 C 38.954 70 30 61.046 30 50 C 30 38.954 38.954 30 50 30 C 61.046 30 70 38.954 70 50 C 70 61.046 61.046 70 50 70 z" stroke-linecap="round" />
</g>
		<g transform="matrix(8 0 0 8 -99.96 99.56)"  >
<path style="stroke: none; stroke-width: 1; stroke-dasharray: none; stroke-linecap: butt; stroke-dashoffset: 0; stroke-linejoin: miter; stroke-miterlimit: 4; fill: rgb(248,178,106); fill-rule: nonzero; opacity: 1;" vector-effect="non-scaling-stroke"  transform=" translate(-37.26, -62.76)" d="M 60.678 60.884 C 64.245 57.317 65.65899999999999 52.424 64.946 47.794 C 64.855 47.205 64.124 46.973 63.702999999999996 47.394 L 54.513999999999996 56.582 C 53.90488716794355 57.19112874592105 53.017061970892826 57.429000331562804 52.184999999999995 57.206 L 46.135999999999996 55.585 C 45.303983995934146 55.361898504196674 44.654101495803324 54.71201600406585 44.431 53.88 L 42.809999999999995 47.831 C 42.586999668437194 46.99893802910717 42.82487125407895 46.111112832056456 43.434 45.502 L 52.622 36.314 C 53.045 35.891 52.81 35.16 52.219 35.069 C 47.196 34.298 41.866 36.028000000000006 38.254000000000005 40.293000000000006 C 34.191 45.09100000000001 33.632000000000005 51.913000000000004 36.49 57.29400000000001 L 11.626 78.386 C 9.740034222717203 80.15206761346376 8.966425984217677 82.80557950123813 9.60781289005115 85.3084747378457 C 10.249199795884621 87.81136997445327 12.203630025546733 89.76580020411538 14.706525262154305 90.40718710994885 C 17.209420498761876 91.04857401578232 19.862932386536237 90.27496577728279 21.628999999999998 88.389 L 42.717999999999996 63.528999999999996 C 48.485 66.619 55.812999999999995 65.749 60.678 60.88399999999999 z M 14.314 85.702 C 13.012540987023737 84.3999887022739 13.012988702273907 82.28945901297627 14.315000000000003 80.988 C 15.617011297726098 79.68654098702373 17.727540987023737 79.68698870227391 19.029 80.989 C 20.330459012976263 82.2910112977261 20.33001129772609 84.40154098702374 19.028 85.703 C 17.725988702273902 87.00445901297627 15.615459012976263 87.0040112977261 14.314 85.702 z" stroke-linecap="round" />
</g>
</g>
</g>
</svg>